# xmcd CD database file
# Copyright (C) 1993-1997  Ti Kan
#
# Track frame offsets:
#	150
#	21645
#	43892
#	57362
#	77402
#	94710
#	115902
#	134947
#	155745
#	191305
#	207305
#	221402
#
# Disc length: 3196 seconds
#
# Revision: 1
# Processed by: cddbd v1.4b41PL1 Copyright (c) Steve Scherf et al.
# Submitted via: xmcd 2.1 PL2
#
DISCID=b10c7a0c
DTITLE=Fresh Oil - Lee Baker and The Agitators
DYEAR=1900
DGENRE=
TTITLE0=In ma Bag (Love me Tonite)
TTITLE1=Stop Breaking Down
TTITLE2=L.A., CA
TTITLE3=Breathing in the Water
TTITLE4=Waiting for the Bad News
TTITLE5=Fall on Me
TTITLE6=Big Fat Mama
TTITLE7=House of Spiders
TTITLE8=Walking Blues
TTITLE9=(Air Mobile) You Can't Catch Me
TTITLE10=Linda Lou
TTITLE11=Moonlight and Magnolias
EXTD=(C) 1996 Blues Works Records
EXTT0=
EXTT1=
EXTT2=
EXTT3=
EXTT4=
EXTT5=
EXTT6=
EXTT7=
EXTT8=
EXTT9=
EXTT10=
EXTT11=
PLAYORDER=
